<svg width="24" height="22" viewBox="0 0 24 22" fill="none" xmlns="http://www.w3.org/2000/svg">
<path d="M23.7797 10.4703L17.0297 3.72031C16.7367 3.42734 16.2619 3.42734 15.9694 3.72031C15.6769 4.01328 15.6764 4.48813 15.9694 4.78063L21.4406 10.25H8.25C7.8375 10.25 7.5 10.5875 7.5 11C7.5 11.4125 7.83544 11.75 8.25 11.75H21.4406L15.9703 17.2203C15.6773 17.5133 15.6773 17.9881 15.9703 18.2806C16.2633 18.5731 16.7381 18.5736 17.0306 18.2806L23.7806 11.5306C23.925 11.3844 24 11.1922 24 11C24 10.8078 23.925 10.6156 23.7797 10.4703ZM8.25 20H3.75C2.50922 20 1.5 18.9922 1.5 17.75V4.25C1.5 3.00922 2.50922 2 3.75 2H8.25C8.6625 2 9 1.66438 9 1.25C9 0.835625 8.6625 0.5 8.25 0.5H3.75C1.68188 0.5 0 2.18188 0 4.25V17.75C0 19.8172 1.68188 21.5 3.75 21.5H8.25C8.6625 21.5 9 21.1625 9 20.75C9 20.3375 8.6625 20 8.25 20Z" fill="#656565"/>
</svg>
