<svg width="18" height="25" viewBox="0 0 18 25" fill="none" xmlns="http://www.w3.org/2000/svg">
<path d="M15 0H3C1.34625 0 0 1.40137 0 3.125V24.1748C0 24.4602 0.149438 24.7231 0.389625 24.8604C0.629859 24.9961 0.921187 24.9854 1.15275 24.8344L9 19.6338L16.8469 24.834C16.9688 24.9609 17.1094 25 17.25 25C17.3745 25 17.4975 24.968 17.6104 24.9039C17.85 24.7656 18 24.502 18 24.1748V3.125C18 1.40137 16.6547 0 15 0ZM16.5 22.7979L9.40313 18.0928C9.23906 18.0078 9.14062 17.9688 9 17.9688C8.85938 17.9688 8.7202 18.0092 8.59716 18.0908L1.5 22.7979V3.125C1.5 2.26367 2.17219 1.5625 3 1.5625H15C15.8278 1.5625 16.5 2.26367 16.5 3.125V22.7979Z" fill="#656565"/>
</svg>
