<svg width="26" height="21" viewBox="0 0 26 21" fill="none" xmlns="http://www.w3.org/2000/svg">
<path d="M4.33333 15.5312C4.33333 15.1359 4.65833 14.8125 5.05556 14.8125H7.94444C8.34167 14.8125 8.66667 15.1359 8.66667 15.5312C8.66667 15.9266 8.34167 16.25 7.94444 16.25H5.05556C4.65833 16.25 4.33333 15.9266 4.33333 15.5312ZM10.1111 15.5312C10.1111 15.1359 10.4361 14.8125 10.8333 14.8125H16.6111C17.0083 14.8125 17.3333 15.1359 17.3333 15.5312C17.3333 15.9266 17.0083 16.25 16.6111 16.25H10.8333C10.4361 16.25 10.1111 15.9266 10.1111 15.5312ZM0 3.3125C0 1.72451 1.29323 0.4375 2.88889 0.4375H23.1111C24.7045 0.4375 26 1.72451 26 3.3125V17.6875C26 19.2732 24.7045 20.5625 23.1111 20.5625H2.88889C1.29323 20.5625 0 19.2732 0 17.6875V3.3125ZM1.44444 3.3125V17.6875C1.44444 18.4826 2.09128 19.125 2.88889 19.125H23.1111C23.9101 19.125 24.5556 18.4826 24.5556 17.6875V3.3125C24.5556 2.51873 23.9101 1.875 23.1111 1.875H2.88889C2.09128 1.875 1.44444 2.51873 1.44444 3.3125Z" fill="#656565"/>
</svg>
