<svg width="25" height="25" viewBox="0 0 25 25" fill="none" xmlns="http://www.w3.org/2000/svg">
<path d="M8.20313 12.4561C8.20313 10.127 10.127 8.15918 12.5 8.15918C14.873 8.15918 16.7969 10.127 16.7969 12.4561C16.7969 14.873 14.873 16.7969 12.5 16.7969C10.127 16.7969 8.20313 14.873 8.20313 12.4561ZM12.5 9.72168C10.9912 9.72168 9.76563 10.9912 9.76563 12.4561C9.76563 14.0088 10.9912 15.1904 12.5 15.1904C14.0088 15.1904 15.2344 14.0088 15.2344 12.4561C15.2344 10.9912 14.0088 9.72168 12.5 9.72168ZM3.20654 11.2598L1.23731 9.46289C0.694338 8.96973 0.569338 8.16406 0.936525 7.5293L2.41309 4.9707C2.78028 4.33496 3.54053 4.04053 4.24024 4.26367L6.77735 5.07324C7.43164 4.56836 8.1543 4.14844 8.92578 3.82959L9.49707 1.22852C9.65332 0.51123 10.2881 0 11.0254 0H13.9746C14.7119 0 15.3467 0.51123 15.5029 1.22852L16.0742 3.82959C16.8018 4.14844 17.5684 4.56836 18.2227 5.07324L20.7617 4.26367C21.46 4.04053 22.2217 4.33496 22.5879 4.9707L24.0625 7.5293C24.4287 8.16406 24.3066 8.96973 23.7647 9.46289L21.792 11.2598C21.8457 11.665 21.875 12.0801 21.875 12.4561C21.875 12.9199 21.8457 13.335 21.792 13.7402L23.7647 15.5371C24.3066 16.0303 24.4287 16.8359 24.0625 17.4707L22.5879 20.0293C22.2217 20.6641 21.46 20.957 20.7617 20.7373L18.2227 19.9268C17.5684 20.4297 16.8018 20.8496 16.0742 21.1719L15.5029 23.7695C15.3467 24.4873 14.7119 25 13.9746 25H11.0254C10.2881 25 9.65332 24.4873 9.49707 23.7695L8.92578 21.1719C8.1543 20.8496 7.43164 20.4297 6.77735 19.9268L4.24024 20.7373C3.54053 20.957 2.78028 20.6641 2.41309 20.0293L0.936525 17.4707C0.569338 16.8359 0.694338 16.0303 1.23731 15.5371L3.20654 13.7402C3.15283 13.335 3.125 12.9199 3.125 12.4561C3.125 12.0801 3.15283 11.665 3.20654 11.2598ZM7.73438 6.30859L7.08496 6.81152L3.76611 5.75195L2.28955 8.31055L4.86231 10.6543L4.75537 11.4648C4.71045 11.8018 4.6875 12.1484 4.6875 12.4561C4.6875 12.8516 4.71045 13.1982 4.75537 13.5352L4.86231 14.3457L2.28955 16.6895L3.76611 19.248L7.08496 18.1885L7.73438 18.6914C8.27637 19.1113 8.88184 19.4629 9.52149 19.6826L10.2783 20.0391L11.0254 23.4375H13.9746L14.7217 20.0391L15.4346 19.6826C16.1182 19.4629 16.7236 19.1113 17.2656 18.6914L17.915 18.1885L21.2354 19.248L22.71 16.6895L20.1367 14.3457L20.2441 13.5352C20.2881 13.1982 20.3125 12.8516 20.3125 12.5C20.3125 12.1484 20.2881 11.8018 20.2441 11.4648L20.1367 10.6543L22.71 8.31055L21.2354 5.75195L17.915 6.81152L17.2656 6.30859C16.7236 5.88867 16.1182 5.53711 15.4346 5.27344L14.7217 4.96094L13.9746 1.5625H11.0254L10.2783 4.96094L9.52149 5.27344C8.88184 5.53711 8.27637 5.88867 7.73438 6.30859Z" fill="#656565"/>
</svg>
