<?xml version="1.0" encoding="utf-8"?>
<!-- Generator: Adobe Illustrator 27.3.1, SVG Export Plug-In . SVG Version: 6.00 Build 0)  -->
<svg version="1.1" id="Camada_1" xmlns="http://www.w3.org/2000/svg" xmlns:xlink="http://www.w3.org/1999/xlink" x="0px" y="0px"
	 viewBox="0 0 18.2 20.3" style="enable-background:new 0 0 18.2 20.3;" xml:space="preserve">
<style type="text/css">
	.st0{display:none;fill:#656565;}
	.st1{fill-rule:evenodd;clip-rule:evenodd;fill:#656565;}
</style>
<path class="st0" d="M9.6,2.8l-1.8,2l-1.9-2C4.1,1.1,1.4,0.9-0.3,2.4l0,0c-2.1,1.8-2.2,5-0.3,6.9h0l8.4,8.6c0,0,0,0,0,0l0.5-0.6
	c0.2,0.5,0.4,0.9,0.7,1.3l-0.2,0.2c-0.6,0.6-1.5,0.6-2,0l-8.4-8.6C-4.1,7.8-4,3.7-1.3,1.3c2.3-2,5.8-1.6,8,0.5c0,0,0.1,0.1,0.1,0.1
	l0.9,0.9l0.8-0.9c0,0,0.1-0.1,0.1-0.1c2.2-2.1,5.7-2.4,8-0.4c1.9,1.6,2.5,4.1,1.9,6.3c-0.4-0.2-0.9-0.4-1.3-0.5
	c0.4-1.7-0.1-3.5-1.5-4.8C14,0.9,11.3,1.1,9.6,2.8z M16,13.7h2.1c0.4,0,0.7,0.3,0.7,0.7c0,0.4-0.3,0.7-0.7,0.7H16v2.1
	c0,0.4-0.3,0.7-0.7,0.7c-0.4,0-0.7-0.3-0.7-0.7v-2.1h-2.1c-0.4,0-0.7-0.3-0.7-0.7c0-0.3,0.3-0.7,0.7-0.7h2.1v-2.1
	c0-0.3,0.3-0.7,0.7-0.7c0.4,0,0.7,0.3,0.7,0.7V13.7z M21.6,14.5c0,3.4-2.8,6.2-6.2,6.2s-6.2-2.8-6.2-6.2s2.8-6.2,6.2-6.2
	S21.6,11,21.6,14.5z M15.3,9.7c-2.7,0-4.9,2.2-4.9,4.8s2.2,4.8,4.9,4.8s4.9-2.2,4.9-4.8S18,9.7,15.3,9.7z"/>
<path class="st1" d="M12.2,0.6c-1.8-0.7-3.8-0.7-5.7-0.2C4.6,0.9,3,2.1,1.8,3.7C0.6,5.2,0,7.1,0,9.1l0,0.4v9c0,0.4,0.1,0.8,0.4,1.1
	c0.2,0.3,0.6,0.6,1,0.7c0.4,0.1,0.8,0.1,1.2-0.1c0.4-0.1,0.7-0.4,0.9-0.8l1.4-2.3l0.3,0.1c1.2,0.6,2.6,0.9,3.9,0.9c0,0,0,0,0,0
	l0.3,0c0.6,0,1.1-0.1,1.7-0.2c1.9-0.4,3.6-1.5,4.9-3c1.3-1.5,2-3.3,2.2-5.3c0.1-2-0.4-3.9-1.5-5.5C15.6,2.5,14.1,1.2,12.2,0.6z
	 M12.3,16.3c-0.5,0.2-1,0.4-1.5,0.5C10.3,16.9,9.8,17,9.1,17C9,17,9,17,8.9,17c-1.1,0-2.1-0.2-3.1-0.7l-0.4-0.2l2-3.3
	c0.1-0.1,0.1-0.3,0.1-0.5S7.5,12.1,7.3,12c-0.6-0.4-1.1-1-1.4-1.6C5.7,9.6,5.6,8.9,5.8,8.2C6,7.5,6.5,6.8,7,6.4
	c1.2-0.9,2.9-0.9,4.1,0c0.6,0.4,1,1.1,1.2,1.8c0.2,0.7,0.2,1.5-0.1,2.1C12,11,11.5,11.6,10.9,12c-0.1,0.1-0.2,0.2-0.3,0.4
	s0,0.3,0.1,0.5l2,3.3L12.3,16.3z M15.1,14.2c-0.3,0.4-0.7,0.7-1.1,1l-0.3,0.2L12,12.7l0.2-0.2c0.5-0.5,0.9-1.1,1.2-1.7
	c0.4-0.9,0.4-1.9,0.1-2.9c-0.3-1-0.8-1.8-1.6-2.4c-1.6-1.2-3.9-1.2-5.5,0C5.5,6,5,6.9,4.7,7.9c-0.3,1-0.2,2,0.1,2.9
	C5.1,11.4,5.5,12,6,12.5l0.2,0.2l-3.8,6.1c-0.1,0.1-0.2,0.2-0.3,0.3c-0.1,0-0.2,0-0.2,0c-0.1,0-0.1,0-0.2,0c-0.1,0-0.3-0.1-0.4-0.2
	c-0.1-0.1-0.1-0.3-0.1-0.4l0-9.3c0-1.7,0.5-3.3,1.6-4.7C3.8,3,5.2,2,6.8,1.5c1.6-0.5,3.4-0.4,5,0.2c1.6,0.6,3,1.7,3.9,3.1
	c0.9,1.4,1.4,3.1,1.3,4.8C16.9,11.3,16.2,12.9,15.1,14.2z"/>
</svg>
