<svg width="32" height="25" viewBox="0 0 32 25" fill="none" xmlns="http://www.w3.org/2000/svg">
<path d="M13.4131 14.8438H8.46191C3.7876 14.8438 0 18.6328 0 23.3057C0 24.2432 0.757812 25 1.69238 25H20.1807C21.1182 25 21.875 24.2432 21.875 23.3057C21.875 18.6328 18.0859 14.8438 13.4131 14.8438ZM20.1807 23.4375H1.69238C1.62109 23.4375 1.5625 23.3789 1.5625 23.3057C1.5625 19.502 4.6582 16.4062 8.46191 16.4062H13.4131C17.2168 16.4062 20.3125 19.502 20.3125 23.3057C20.3125 23.3789 20.2539 23.4375 20.1807 23.4375ZM10.9375 12.5C14.3896 12.5 17.1875 9.70166 17.1875 6.25C17.1875 2.79834 14.3896 0 10.9375 0C7.48535 0 4.6875 2.79834 4.6875 6.25C4.6875 9.70166 7.48535 12.5 10.9375 12.5ZM10.9375 1.5625C13.5225 1.5625 15.625 3.66504 15.625 6.25C15.625 8.83447 13.5225 10.9375 10.9375 10.9375C8.35254 10.9375 6.25 8.83301 6.25 6.25C6.25 3.66504 8.35449 1.5625 10.9375 1.5625ZM18.3154 11.7676C19.1846 12.2461 20.1318 12.5 21.0938 12.5C24.1113 12.5 26.5625 10.0488 26.5625 7.03125C26.5625 4.01367 24.1113 1.5625 21.0938 1.5625C20.4673 1.5625 19.854 1.66777 19.2705 1.87456C18.8639 2.01875 18.6509 2.46489 18.7952 2.87163C18.9394 3.27905 19.387 3.48979 19.7923 3.34692C20.21 3.19971 20.6445 3.125 21.0938 3.125C23.2471 3.125 25 4.87744 25 7.03125C25 9.18506 23.2471 10.9375 21.0938 10.9375C20.4062 10.9375 19.731 10.7567 19.1416 10.4155C18.7678 10.1981 18.29 10.3263 18.0742 10.7001C17.8564 11.0742 17.9834 11.5527 18.3154 11.7676ZM23.96 15.625H21.875C21.4432 15.625 21.0938 15.9744 21.0938 16.4062C21.0938 16.8381 21.4453 17.1875 21.875 17.1875H23.9585C27.1191 17.1875 29.6875 19.7559 29.6875 22.915C29.6875 23.2031 29.4531 23.4375 29.165 23.4375H24.2188C23.7869 23.4375 23.4375 23.7869 23.4375 24.2188C23.4375 24.6506 23.7869 25 24.2188 25H29.165C30.3174 25 31.25 24.0674 31.25 22.915C31.25 18.8525 27.9785 15.625 23.96 15.625Z" fill="#656565"/>
</svg>
